<svg width="291" height="111" viewBox="0 0 291 111" fill="none" xmlns="http://www.w3.org/2000/svg">
<g filter="url(#filter0_d_0_1)">
<path d="M38.698 56V3.024H71.885C75.8377 3.024 79.123 3.81967 81.741 5.411C84.4103 7.00233 86.4123 9.08133 87.747 11.648C89.0817 14.2147 89.749 16.9867 89.749 19.964C89.749 23.352 88.9533 26.3807 87.362 29.05C85.7707 31.668 83.6147 33.7727 80.894 35.364L91.289 56H72.193L64.108 38.213H55.715V56H38.698ZM55.715 26.432H67.65C68.9847 26.432 70.114 25.9187 71.038 24.892C71.962 23.814 72.424 22.4023 72.424 20.657C72.424 19.579 72.2187 18.6293 71.808 17.808C71.3973 16.9867 70.8327 16.345 70.114 15.883C69.3953 15.3697 68.574 15.113 67.65 15.113H55.715V26.432ZM117.068 56.924C112.448 56.924 108.418 56.154 104.979 54.614C101.591 53.0227 98.9471 50.6613 97.0478 47.53C95.1484 44.3473 94.1988 40.3947 94.1988 35.672C94.1988 30.898 95.1484 26.9453 97.0478 23.814C98.9471 20.6827 101.591 18.347 104.979 16.807C108.418 15.2157 112.448 14.42 117.068 14.42C121.688 14.42 125.717 15.2157 129.157 16.807C132.596 18.347 135.265 20.6827 137.165 23.814C139.064 26.9453 140.014 30.898 140.014 35.672C140.014 40.3947 139.064 44.3473 137.165 47.53C135.265 50.6613 132.596 53.0227 129.157 54.614C125.717 56.154 121.688 56.924 117.068 56.924ZM117.068 46.529C118.864 46.529 120.327 46.1953 121.457 45.528C122.586 44.8093 123.407 43.8083 123.921 42.525C124.434 41.2417 124.691 39.7017 124.691 37.905V33.516C124.691 31.7193 124.434 30.1793 123.921 28.896C123.407 27.5613 122.586 26.5603 121.457 25.893C120.327 25.1743 118.864 24.815 117.068 24.815C115.271 24.815 113.808 25.1743 112.679 25.893C111.601 26.5603 110.805 27.5613 110.292 28.896C109.778 30.1793 109.522 31.7193 109.522 33.516V37.905C109.522 39.7017 109.778 41.2417 110.292 42.525C110.805 43.8083 111.601 44.8093 112.679 45.528C113.808 46.1953 115.271 46.529 117.068 46.529ZM174.201 56.924C171.583 56.924 169.145 56.385 166.886 55.307C164.679 54.229 162.908 52.535 161.573 50.225H161.034L159.956 56H147.482V0.174998H162.805V19.117H163.344C164.165 18.0903 165.141 17.2433 166.27 16.576C167.399 15.8573 168.631 15.3183 169.966 14.959C171.352 14.5997 172.764 14.42 174.201 14.42C177.794 14.42 180.874 15.2157 183.441 16.807C186.008 18.347 187.958 20.6827 189.293 23.814C190.679 26.9453 191.372 30.8723 191.372 35.595C191.372 40.369 190.679 44.3473 189.293 47.53C187.958 50.6613 186.008 53.0227 183.441 54.614C180.874 56.154 177.794 56.924 174.201 56.924ZM169.427 45.605C171.018 45.605 172.302 45.297 173.277 44.681C174.252 44.0137 174.945 43.0897 175.356 41.909C175.818 40.7283 176.049 39.3423 176.049 37.751V33.67C176.049 32.0787 175.818 30.6927 175.356 29.512C174.945 28.3313 174.252 27.4073 173.277 26.74C172.302 26.0727 171.018 25.739 169.427 25.739C168.246 25.739 167.22 25.97 166.347 26.432C165.474 26.894 164.756 27.5357 164.191 28.357C163.678 29.127 163.293 30.051 163.036 31.129C162.779 32.1557 162.651 33.2593 162.651 34.44V36.981C162.651 38.5723 162.882 40.0353 163.344 41.37C163.806 42.6533 164.525 43.68 165.5 44.45C166.527 45.22 167.836 45.605 169.427 45.605ZM219.785 56.924C215.165 56.924 211.135 56.154 207.696 54.614C204.308 53.0227 201.664 50.6613 199.765 47.53C197.865 44.3473 196.916 40.3947 196.916 35.672C196.916 30.898 197.865 26.9453 199.765 23.814C201.664 20.6827 204.308 18.347 207.696 16.807C211.135 15.2157 215.165 14.42 219.785 14.42C224.405 14.42 228.434 15.2157 231.874 16.807C235.313 18.347 237.982 20.6827 239.882 23.814C241.781 26.9453 242.731 30.898 242.731 35.672C242.731 40.3947 241.781 44.3473 239.882 47.53C237.982 50.6613 235.313 53.0227 231.874 54.614C228.434 56.154 224.405 56.924 219.785 56.924ZM219.785 46.529C221.581 46.529 223.044 46.1953 224.174 45.528C225.303 44.8093 226.124 43.8083 226.638 42.525C227.151 41.2417 227.408 39.7017 227.408 37.905V33.516C227.408 31.7193 227.151 30.1793 226.638 28.896C226.124 27.5613 225.303 26.5603 224.174 25.893C223.044 25.1743 221.581 24.815 219.785 24.815C217.988 24.815 216.525 25.1743 215.396 25.893C214.318 26.5603 213.522 27.5613 213.009 28.896C212.495 30.1793 212.239 31.7193 212.239 33.516V37.905C212.239 39.7017 212.495 41.2417 213.009 42.525C213.522 43.8083 214.318 44.8093 215.396 45.528C216.525 46.1953 217.988 46.529 219.785 46.529Z" fill="url(#paint0_linear_0_1)"/>
<path d="M38.698 56H34.698V60H38.698V56ZM38.698 3.024V-0.976002H34.698V3.024H38.698ZM81.741 5.411L79.6633 8.82909L79.678 8.838L79.6927 8.84679L81.741 5.411ZM87.747 11.648L84.1981 13.4934V13.4934L87.747 11.648ZM87.362 29.05L90.7801 31.1277L90.789 31.113L90.7978 31.0983L87.362 29.05ZM80.894 35.364L78.8745 31.9113L75.6314 33.8081L77.3216 37.1635L80.894 35.364ZM91.289 56V60H97.7828L94.8614 54.2005L91.289 56ZM72.193 56L68.5515 57.6552L69.6173 60H72.193V56ZM64.108 38.213L67.7495 36.5578L66.6837 34.213H64.108V38.213ZM55.715 38.213V34.213H51.715V38.213H55.715ZM55.715 56V60H59.715V56H55.715ZM55.715 26.432H51.715V30.432H55.715V26.432ZM71.038 24.892L74.0112 27.5679L74.0435 27.5319L74.075 27.4952L71.038 24.892ZM71.808 17.808L68.2303 19.5969L68.2303 19.5969L71.808 17.808ZM70.114 15.883L67.7891 19.1379L67.8687 19.1948L67.951 19.2477L70.114 15.883ZM55.715 15.113V11.113H51.715V15.113H55.715ZM42.698 56V3.024H34.698V56H42.698ZM38.698 7.024H71.885V-0.976002H38.698V7.024ZM71.885 7.024C75.3137 7.024 77.8287 7.71393 79.6633 8.82909L83.8187 1.99291C80.4173 -0.0746012 76.3616 -0.976002 71.885 -0.976002V7.024ZM79.6927 8.84679C81.7732 10.087 83.2318 11.6351 84.1981 13.4934L91.2959 9.80259C89.5929 6.52759 87.0475 3.91762 83.7893 1.97521L79.6927 8.84679ZM84.1981 13.4934C85.2276 15.4731 85.749 17.6097 85.749 19.964H93.749C93.749 16.3637 92.9358 12.9562 91.2959 9.80259L84.1981 13.4934ZM85.749 19.964C85.749 22.698 85.1153 25.0071 83.9262 27.0017L90.7978 31.0983C92.7913 27.7542 93.749 24.006 93.749 19.964H85.749ZM83.9439 26.9723C82.7076 29.0063 81.0392 30.6451 78.8745 31.9113L82.9135 38.8167C86.1901 36.9003 88.8337 34.3297 90.7801 31.1277L83.9439 26.9723ZM77.3216 37.1635L87.7166 57.7995L94.8614 54.2005L84.4664 33.5645L77.3216 37.1635ZM91.289 52H72.193V60H91.289V52ZM75.8345 54.3448L67.7495 36.5578L60.4665 39.8682L68.5515 57.6552L75.8345 54.3448ZM64.108 34.213H55.715V42.213H64.108V34.213ZM51.715 38.213V56H59.715V38.213H51.715ZM55.715 52H38.698V60H55.715V52ZM55.715 30.432H67.65V22.432H55.715V30.432ZM67.65 30.432C70.1628 30.432 72.3587 29.404 74.0112 27.5679L68.0648 22.2161C67.9291 22.3669 67.8523 22.4012 67.8428 22.4055C67.8366 22.4084 67.7903 22.432 67.65 22.432V30.432ZM74.075 27.4952C75.7539 25.5365 76.424 23.1299 76.424 20.657H68.424C68.424 21.6748 68.1701 22.0915 68.001 22.2888L74.075 27.4952ZM76.424 20.657C76.424 19.0656 76.1185 17.4848 75.3857 16.0191L68.2303 19.5969C68.3188 19.7739 68.424 20.0924 68.424 20.657H76.424ZM75.3857 16.0191C74.6785 14.6048 73.6455 13.398 72.277 12.5183L67.951 19.2477C68.0198 19.292 68.1161 19.3685 68.2303 19.5969L75.3857 16.0191ZM72.439 12.6281C71.0093 11.6069 69.3667 11.113 67.65 11.113V19.113C67.6954 19.113 67.7252 19.1161 67.7418 19.1186C67.7581 19.121 67.7652 19.1232 67.7659 19.1234C67.7664 19.1236 67.7661 19.1235 67.7669 19.1238C67.7678 19.1243 67.775 19.1279 67.7891 19.1379L72.439 12.6281ZM67.65 11.113H55.715V19.113H67.65V11.113ZM51.715 15.113V26.432H59.715V15.113H51.715ZM104.979 54.614L103.278 58.2345L103.311 58.2499L103.344 58.2647L104.979 54.614ZM97.0478 47.53L93.6129 49.5798L93.6203 49.5922L93.6277 49.6044L97.0478 47.53ZM97.0478 23.814L100.468 25.8885V25.8884L97.0478 23.814ZM104.979 16.807L106.634 20.4485L106.646 20.4429L106.658 20.4372L104.979 16.807ZM129.157 16.807L127.477 20.4372L127.5 20.4476L127.522 20.4577L129.157 16.807ZM137.165 23.814L133.745 25.8884L137.165 23.814ZM137.165 47.53L140.585 49.6044L140.592 49.5922L140.6 49.5798L137.165 47.53ZM129.157 54.614L130.791 58.2647L130.814 58.2546L130.836 58.2442L129.157 54.614ZM121.457 45.528L123.492 48.9717L123.549 48.9381L123.604 48.9026L121.457 45.528ZM123.921 42.525L120.207 41.0394L123.921 42.525ZM123.921 28.896L120.187 30.3319L120.197 30.3568L120.207 30.3816L123.921 28.896ZM121.457 25.893L119.309 29.2676L119.365 29.3031L119.422 29.3367L121.457 25.893ZM112.679 25.893L114.784 29.2941L114.805 29.281L114.826 29.2676L112.679 25.893ZM110.292 28.896L114.006 30.3816L114.016 30.3568L114.025 30.3319L110.292 28.896ZM110.292 42.525L106.578 44.0106L110.292 42.525ZM112.679 45.528L110.46 48.8562L110.55 48.9165L110.644 48.9717L112.679 45.528ZM117.068 52.924C112.887 52.924 109.436 52.2271 106.613 50.9633L103.344 58.2647C107.4 60.0809 112.009 60.924 117.068 60.924V52.924ZM106.679 50.9935C103.987 49.7291 101.949 47.8979 100.468 45.4556L93.6277 49.6044C95.945 53.4248 99.194 56.3162 103.278 58.2345L106.679 50.9935ZM100.483 45.4802C99.0417 43.0656 98.1988 39.8678 98.1988 35.672H90.1988C90.1988 40.9215 91.2552 45.6291 93.6129 49.5798L100.483 45.4802ZM98.1988 35.672C98.1988 31.4122 99.0466 28.2315 100.468 25.8885L93.6277 21.7395C91.2503 25.6592 90.1988 30.3838 90.1988 35.672H98.1988ZM100.468 25.8884C101.943 23.4568 103.966 21.6613 106.634 20.4485L103.324 13.1655C99.2157 15.0327 95.9515 17.9085 93.6277 21.7396L100.468 25.8884ZM106.658 20.4372C109.469 19.1369 112.903 18.42 117.068 18.42V10.42C111.992 10.42 107.367 11.2945 103.299 13.1768L106.658 20.4372ZM117.068 18.42C121.232 18.42 124.667 19.1369 127.477 20.4372L130.836 13.1768C126.768 11.2945 122.143 10.42 117.068 10.42V18.42ZM127.522 20.4577C130.243 21.676 132.279 23.4727 133.745 25.8884L140.585 21.7396C138.251 17.8926 134.949 15.018 130.791 13.1563L127.522 20.4577ZM133.745 25.8884C135.166 28.2315 136.014 31.4122 136.014 35.672H144.014C144.014 30.3838 142.962 25.6592 140.585 21.7395L133.745 25.8884ZM136.014 35.672C136.014 39.8678 135.171 43.0656 133.73 45.4802L140.6 49.5798C142.957 45.6291 144.014 40.9215 144.014 35.672H136.014ZM133.745 45.4556C132.273 47.8821 130.221 49.7141 127.477 50.9837L130.836 58.2442C134.971 56.3312 138.258 53.4405 140.585 49.6044L133.745 45.4556ZM127.522 50.9633C124.699 52.2271 121.249 52.924 117.068 52.924V60.924C122.127 60.924 126.735 60.0809 130.791 58.2647L127.522 50.9633ZM117.068 50.529C119.326 50.529 121.559 50.1137 123.492 48.9717L119.422 42.0843C119.096 42.2769 118.403 42.529 117.068 42.529V50.529ZM123.604 48.9026C125.465 47.7186 126.821 46.0451 127.635 44.0106L120.207 41.0394C119.994 41.5716 119.707 41.9001 119.309 42.1534L123.604 48.9026ZM127.635 44.0106C128.384 42.1364 128.691 40.0653 128.691 37.905H120.691C120.691 39.338 120.484 40.3469 120.207 41.0394L127.635 44.0106ZM128.691 37.905V33.516H120.691V37.905H128.691ZM128.691 33.516C128.691 31.3557 128.384 29.2846 127.635 27.4104L120.207 30.3816C120.484 31.0741 120.691 32.083 120.691 33.516H128.691ZM127.654 27.4601C126.848 25.3647 125.469 23.6175 123.492 22.4493L119.422 29.3367C119.704 29.5032 119.967 29.758 120.187 30.3319L127.654 27.4601ZM123.604 22.5184C121.648 21.2738 119.372 20.815 117.068 20.815V28.815C118.357 28.815 119.006 29.0749 119.309 29.2676L123.604 22.5184ZM117.068 20.815C114.764 20.815 112.487 21.2738 110.531 22.5184L114.826 29.2676C115.129 29.0749 115.778 28.815 117.068 28.815V20.815ZM110.573 22.4919C108.659 23.6771 107.343 25.4196 106.558 27.4601L114.025 30.3319C114.267 29.7031 114.543 29.4436 114.784 29.2941L110.573 22.4919ZM106.578 27.4104C105.828 29.2846 105.522 31.3557 105.522 33.516H113.522C113.522 32.083 113.729 31.0741 114.006 30.3816L106.578 27.4104ZM105.522 33.516V37.905H113.522V33.516H105.522ZM105.522 37.905C105.522 40.0653 105.828 42.1364 106.578 44.0106L114.006 41.0394C113.729 40.3469 113.522 39.338 113.522 37.905H105.522ZM106.578 44.0106C107.371 45.9923 108.663 47.6581 110.46 48.8562L114.898 42.1998C114.539 41.9606 114.24 41.6244 114.006 41.0394L106.578 44.0106ZM110.644 48.9717C112.576 50.1137 114.809 50.529 117.068 50.529V42.529C115.733 42.529 115.04 42.2769 114.714 42.0843L110.644 48.9717ZM166.886 55.307L165.131 58.9013L165.147 58.9092L165.163 58.9169L166.886 55.307ZM161.573 50.225L165.037 48.2239L163.882 46.225H161.573V50.225ZM161.034 50.225V46.225H157.712L157.102 49.491L161.034 50.225ZM159.956 56V60H163.279L163.888 56.734L159.956 56ZM147.482 56H143.482V60H147.482V56ZM147.482 0.174997V-3.825H143.482V0.174997H147.482ZM162.805 0.174997H166.805V-3.825H162.805V0.174997ZM162.805 19.117H158.805V23.117H162.805V19.117ZM163.344 19.117V23.117H165.267L166.468 21.6158L163.344 19.117ZM166.27 16.576L168.305 20.0197L168.362 19.9861L168.418 19.9506L166.27 16.576ZM169.966 14.959L168.962 11.087L168.944 11.0917L168.926 11.0965L169.966 14.959ZM183.441 16.807L181.333 20.2066L181.358 20.222L181.383 20.237L183.441 16.807ZM189.293 23.814L185.613 25.3824L185.624 25.4078L185.635 25.433L189.293 23.814ZM189.293 47.53L185.626 45.9329L185.62 45.9472L185.613 45.9616L189.293 47.53ZM183.441 54.614L185.499 58.044L185.524 58.029L185.549 58.0136L183.441 54.614ZM173.277 44.681L175.413 48.063L175.475 48.0237L175.536 47.9822L173.277 44.681ZM175.356 41.909L171.631 40.4514L171.603 40.5227L171.578 40.5949L175.356 41.909ZM175.356 29.512L171.578 30.8261L171.603 30.8983L171.631 30.9696L175.356 29.512ZM173.277 26.74L175.536 23.4388V23.4388L173.277 26.74ZM166.347 26.432L168.219 29.9672V29.9672L166.347 26.432ZM164.191 28.357L160.895 26.0909L160.879 26.1144L160.863 26.1382L164.191 28.357ZM163.036 31.129L166.917 32.0991L166.922 32.0773L166.927 32.0555L163.036 31.129ZM163.344 41.37L159.564 42.6784L159.572 42.7017L159.581 42.7249L163.344 41.37ZM165.5 44.45L163.022 47.5895L163.061 47.6203L163.1 47.65L165.5 44.45ZM174.201 52.924C172.151 52.924 170.305 52.5064 168.609 51.6971L165.163 58.9169C167.985 60.2636 171.015 60.924 174.201 60.924V52.924ZM168.641 51.7127C167.211 51.0142 166.009 49.9068 165.037 48.2239L158.11 52.2261C159.807 55.1632 162.146 57.4438 165.131 58.9013L168.641 51.7127ZM161.573 46.225H161.034V54.225H161.573V46.225ZM157.102 49.491L156.024 55.266L163.888 56.734L164.966 50.959L157.102 49.491ZM159.956 52H147.482V60H159.956V52ZM151.482 56V0.174997H143.482V56H151.482ZM147.482 4.175H162.805V-3.825H147.482V4.175ZM158.805 0.174997V19.117H166.805V0.174997H158.805ZM162.805 23.117H163.344V15.117H162.805V23.117ZM166.468 21.6158C166.987 20.9665 167.594 20.44 168.305 20.0197L164.235 13.1323C162.688 14.0467 161.344 15.2141 160.221 16.6182L166.468 21.6158ZM168.418 19.9506C169.194 19.4569 170.05 19.0788 171.006 18.8215L168.926 11.0965C167.213 11.5579 165.605 12.2578 164.123 13.2014L168.418 19.9506ZM170.97 18.831C172.027 18.557 173.101 18.42 174.201 18.42V10.42C172.426 10.42 170.677 10.6423 168.962 11.087L170.97 18.831ZM174.201 18.42C177.193 18.42 179.511 19.0767 181.333 20.2066L185.549 13.4074C182.238 11.3546 178.396 10.42 174.201 10.42V18.42ZM181.383 20.237C183.13 21.2848 184.562 22.9162 185.613 25.3824L192.973 22.2456C191.355 18.4491 188.886 15.4092 185.499 13.377L181.383 20.237ZM185.635 25.433C186.727 27.8999 187.372 31.2318 187.372 35.595H195.372C195.372 30.5129 194.631 25.9907 192.951 22.195L185.635 25.433ZM187.372 35.595C187.372 40.0128 186.727 43.4054 185.626 45.9329L192.96 49.1271C194.632 45.2892 195.372 40.7252 195.372 35.595H187.372ZM185.613 45.9616C184.559 48.4355 183.113 50.1111 181.333 51.2144L185.549 58.0136C188.903 55.9342 191.358 52.8872 192.973 49.0984L185.613 45.9616ZM181.383 51.184C179.552 52.2825 177.215 52.924 174.201 52.924V60.924C178.373 60.924 182.197 60.0255 185.499 58.044L181.383 51.184ZM169.427 49.605C171.498 49.605 173.599 49.2085 175.413 48.063L171.141 41.299C171.004 41.3855 170.539 41.605 169.427 41.605V49.605ZM175.536 47.9822C177.259 46.8031 178.46 45.1618 179.134 43.2231L171.578 40.5949C171.431 41.0175 171.246 41.2243 171.018 41.3798L175.536 47.9822ZM179.081 43.3666C179.765 41.6197 180.049 39.7187 180.049 37.751H172.049C172.049 38.966 171.872 39.837 171.631 40.4514L179.081 43.3666ZM180.049 37.751V33.67H172.049V37.751H180.049ZM180.049 33.67C180.049 31.7023 179.765 29.8013 179.081 28.0544L171.631 30.9696C171.872 31.584 172.049 32.455 172.049 33.67H180.049ZM179.134 28.1979C178.46 26.2592 177.259 24.6179 175.536 23.4388L171.018 30.0412C171.246 30.1967 171.431 30.4035 171.578 30.8261L179.134 28.1979ZM175.536 23.4388C173.7 22.183 171.551 21.739 169.427 21.739V29.739C170.486 29.739 170.903 29.9624 171.018 30.0412L175.536 23.4388ZM169.427 21.739C167.721 21.739 166.028 22.0752 164.476 22.8969L168.219 29.9672C168.412 29.8648 168.772 29.739 169.427 29.739V21.739ZM164.476 22.8968C163.027 23.6637 161.822 24.743 160.895 26.0909L167.487 30.6231C167.69 30.3283 167.922 30.1243 168.219 29.9672L164.476 22.8968ZM160.863 26.1382C160.041 27.3715 159.49 28.7524 159.145 30.2025L166.927 32.0555C167.095 31.3496 167.315 30.8825 167.519 30.5758L160.863 26.1382ZM159.156 30.1589C158.811 31.5369 158.651 32.9694 158.651 34.44H166.651C166.651 33.5492 166.748 32.7744 166.917 32.0991L159.156 30.1589ZM158.651 34.44V36.981H166.651V34.44H158.651ZM158.651 36.981C158.651 38.9619 158.939 40.8732 159.564 42.6784L167.124 40.0616C166.825 39.1974 166.651 38.1828 166.651 36.981H158.651ZM159.581 42.7249C160.27 44.6404 161.403 46.3117 163.022 47.5895L167.979 41.3105C167.647 41.0483 167.342 40.6663 167.108 40.0151L159.581 42.7249ZM163.1 47.65C164.971 49.0532 167.182 49.605 169.427 49.605V41.605C168.49 41.605 168.083 41.3868 167.9 41.25L163.1 47.65ZM207.696 54.614L205.995 58.2345L206.028 58.2499L206.061 58.2647L207.696 54.614ZM199.765 47.53L196.33 49.5798L196.337 49.5922L196.345 49.6044L199.765 47.53ZM199.765 23.814L203.185 25.8885L203.185 25.8884L199.765 23.814ZM207.696 16.807L209.351 20.4485L209.363 20.4429L209.375 20.4372L207.696 16.807ZM231.874 16.807L230.194 20.4372L230.216 20.4476L230.239 20.4577L231.874 16.807ZM239.882 23.814L236.462 25.8884L239.882 23.814ZM239.882 47.53L243.302 49.6044L243.309 49.5922L243.316 49.5798L239.882 47.53ZM231.874 54.614L233.508 58.2647L233.531 58.2546L233.553 58.2442L231.874 54.614ZM224.174 45.528L226.208 48.9717L226.265 48.9381L226.321 48.9026L224.174 45.528ZM226.638 42.525L222.924 41.0394L226.638 42.525ZM226.638 28.896L222.904 30.3319L222.914 30.3568L222.924 30.3816L226.638 28.896ZM224.174 25.893L222.026 29.2676L222.082 29.3031L222.139 29.3367L224.174 25.893ZM215.396 25.893L217.501 29.2941L217.522 29.281L217.543 29.2676L215.396 25.893ZM213.009 28.896L216.722 30.3816L216.732 30.3568L216.742 30.3319L213.009 28.896ZM213.009 42.525L209.295 44.0106L213.009 42.525ZM215.396 45.528L213.177 48.8562L213.267 48.9165L213.361 48.9717L215.396 45.528ZM219.785 52.924C215.604 52.924 212.153 52.2271 209.33 50.9633L206.061 58.2647C210.117 60.0809 214.725 60.924 219.785 60.924V52.924ZM209.396 50.9935C206.704 49.7291 204.666 47.8979 203.185 45.4556L196.345 49.6044C198.662 53.4248 201.911 56.3162 205.995 58.2345L209.396 50.9935ZM203.199 45.4802C201.758 43.0656 200.916 39.8678 200.916 35.672H192.916C192.916 40.9215 193.972 45.6291 196.33 49.5798L203.199 45.4802ZM200.916 35.672C200.916 31.4122 201.763 28.2315 203.185 25.8885L196.345 21.7395C193.967 25.6592 192.916 30.3838 192.916 35.672H200.916ZM203.185 25.8884C204.66 23.4568 206.683 21.6613 209.351 20.4485L206.04 13.1655C201.932 15.0327 198.668 17.9085 196.345 21.7396L203.185 25.8884ZM209.375 20.4372C212.186 19.1369 215.62 18.42 219.785 18.42V10.42C214.709 10.42 210.084 11.2945 206.016 13.1768L209.375 20.4372ZM219.785 18.42C223.949 18.42 227.383 19.1369 230.194 20.4372L233.553 13.1768C229.485 11.2945 224.86 10.42 219.785 10.42V18.42ZM230.239 20.4577C232.96 21.676 234.996 23.4727 236.462 25.8884L243.302 21.7396C240.968 17.8926 237.666 15.018 233.508 13.1563L230.239 20.4577ZM236.462 25.8884C237.883 28.2315 238.731 31.4122 238.731 35.672H246.731C246.731 30.3838 245.679 25.6592 243.302 21.7395L236.462 25.8884ZM238.731 35.672C238.731 39.8678 237.888 43.0656 236.447 45.4802L243.316 49.5798C245.674 45.6291 246.731 40.9215 246.731 35.672H238.731ZM236.462 45.4556C234.99 47.8821 232.938 49.7141 230.194 50.9837L233.553 58.2442C237.688 56.3312 240.975 53.4405 243.302 49.6044L236.462 45.4556ZM230.239 50.9633C227.416 52.2271 223.965 52.924 219.785 52.924V60.924C224.844 60.924 229.452 60.0809 233.508 58.2647L230.239 50.9633ZM219.785 50.529C222.043 50.529 224.276 50.1137 226.208 48.9717L222.139 42.0843C221.813 42.2769 221.119 42.529 219.785 42.529V50.529ZM226.321 48.9026C228.182 47.7186 229.538 46.0451 230.351 44.0106L222.924 41.0394C222.711 41.5716 222.424 41.9001 222.026 42.1534L226.321 48.9026ZM230.351 44.0106C231.101 42.1364 231.408 40.0653 231.408 37.905H223.408C223.408 39.338 223.201 40.3469 222.924 41.0394L230.351 44.0106ZM231.408 37.905V33.516H223.408V37.905H231.408ZM231.408 33.516C231.408 31.3557 231.101 29.2846 230.351 27.4104L222.924 30.3816C223.201 31.0741 223.408 32.083 223.408 33.516H231.408ZM230.371 27.4601C229.565 25.3647 228.185 23.6175 226.208 22.4493L222.139 29.3367C222.42 29.5032 222.683 29.758 222.904 30.3319L230.371 27.4601ZM226.321 22.5184C224.365 21.2738 222.089 20.815 219.785 20.815V28.815C221.074 28.815 221.723 29.0749 222.026 29.2676L226.321 22.5184ZM219.785 20.815C217.48 20.815 215.204 21.2738 213.248 22.5184L217.543 29.2676C217.846 29.0749 218.495 28.815 219.785 28.815V20.815ZM213.29 22.4919C211.376 23.6771 210.06 25.4196 209.275 27.4601L216.742 30.3319C216.984 29.7031 217.259 29.4436 217.501 29.2941L213.29 22.4919ZM209.295 27.4104C208.545 29.2846 208.239 31.3557 208.239 33.516H216.239C216.239 32.083 216.445 31.0741 216.722 30.3816L209.295 27.4104ZM208.239 33.516V37.905H216.239V33.516H208.239ZM208.239 37.905C208.239 40.0653 208.545 42.1364 209.295 44.0106L216.722 41.0394C216.445 40.3469 216.239 39.338 216.239 37.905H208.239ZM209.295 44.0106C210.087 45.9923 211.38 47.6581 213.177 48.8562L217.614 42.1998C217.256 41.9606 216.956 41.6244 216.722 41.0394L209.295 44.0106ZM213.361 48.9717C215.293 50.1137 217.526 50.529 219.785 50.529V42.529C218.45 42.529 217.757 42.2769 217.43 42.0843L213.361 48.9717Z" fill="white"/>
</g>
<g filter="url(#filter1_d_0_1)">
<path d="M4.698 102V49.024H21.715V102H4.698ZM32.0438 102V61.344H44.5948L45.5958 67.504H46.1348C47.2128 65.9127 48.4705 64.6037 49.9078 63.577C51.3452 62.499 52.9365 61.7033 54.6818 61.19C56.4272 60.6767 58.2238 60.42 60.0718 60.42C63.3058 60.42 65.9495 61.036 68.0028 62.268C70.1075 63.4487 71.6732 65.1683 72.6998 67.427C73.7265 69.6857 74.2398 72.432 74.2398 75.666V102H58.9168V77.514C58.9168 76.6413 58.7885 75.8713 58.5318 75.204C58.3265 74.4853 58.0185 73.8693 57.6078 73.356C57.1972 72.8427 56.6582 72.4577 55.9908 72.201C55.3748 71.893 54.6305 71.739 53.7578 71.739C52.4745 71.739 51.3452 72.047 50.3698 72.663C49.4458 73.2277 48.7015 73.9977 48.1368 74.973C47.6235 75.897 47.3668 76.9493 47.3668 78.13V102H32.0438ZM94.1822 102L78.7822 61.344H95.2602L99.1872 74.511C99.4439 75.2297 99.7519 76.3077 100.111 77.745C100.522 79.1823 100.958 80.6967 101.42 82.288C101.934 83.8793 102.37 85.3423 102.729 86.677H103.268C103.628 85.445 104.038 84.059 104.5 82.519C104.962 80.9277 105.399 79.4133 105.809 77.976C106.22 76.5387 106.554 75.3837 106.81 74.511L110.737 61.344H125.829L110.275 102H94.1822ZM130.474 56.57V46.175H145.797V56.57H130.474ZM130.474 102V61.344H145.797V102H130.474ZM176.084 102.924C171.464 102.924 167.435 102.154 163.995 100.614C160.607 99.0227 157.964 96.6613 156.064 93.53C154.165 90.3473 153.215 86.3947 153.215 81.672C153.215 76.898 154.165 72.9453 156.064 69.814C157.964 66.6313 160.607 64.27 163.995 62.73C167.435 61.1387 171.464 60.343 176.084 60.343C179.164 60.343 182.065 60.6767 184.785 61.344C187.506 62.0113 189.893 63.038 191.946 64.424C194 65.81 195.591 67.6067 196.72 69.814C197.901 72.0213 198.491 74.665 198.491 77.745H183.63C183.63 76.1537 183.322 74.8447 182.706 73.818C182.142 72.7913 181.295 72.047 180.165 71.585C179.036 71.0717 177.676 70.815 176.084 70.815C174.288 70.815 172.825 71.1743 171.695 71.893C170.617 72.5603 169.822 73.5613 169.308 74.896C168.795 76.1793 168.538 77.7193 168.538 79.516V83.905C168.538 85.7017 168.795 87.2417 169.308 88.525C169.873 89.8083 170.72 90.8093 171.849 91.528C173.03 92.1953 174.544 92.529 176.392 92.529C178.086 92.529 179.498 92.298 180.627 91.836C181.808 91.3227 182.706 90.5527 183.322 89.526C183.938 88.448 184.246 87.0877 184.246 85.445H198.491C198.491 88.525 197.901 91.1943 196.72 93.453C195.591 95.6603 194 97.457 191.946 98.843C189.893 100.229 187.506 101.256 184.785 101.923C182.065 102.59 179.164 102.924 176.084 102.924ZM223.67 102.924C220.898 102.924 218.434 102.616 216.278 102C214.173 101.333 212.53 100.203 211.35 98.612C210.169 97.0207 209.579 94.839 209.579 92.067V71.739H203.881V61.344H210.195L213.506 49.024H224.902V61.344H233.526V71.739H224.902V87.216C224.902 88.9613 225.184 90.296 225.749 91.22C226.313 92.0927 227.468 92.529 229.214 92.529H233.526V101.538C232.704 101.795 231.678 102.026 230.446 102.231C229.265 102.488 228.059 102.667 226.827 102.77C225.646 102.873 224.594 102.924 223.67 102.924ZM261.657 102.924C257.037 102.924 253.007 102.154 249.568 100.614C246.18 99.0227 243.536 96.6613 241.637 93.53C239.737 90.3473 238.788 86.3947 238.788 81.672C238.788 76.898 239.737 72.9453 241.637 69.814C243.536 66.6827 246.18 64.347 249.568 62.807C253.007 61.2157 257.037 60.42 261.657 60.42C266.277 60.42 270.306 61.2157 273.746 62.807C277.185 64.347 279.854 66.6827 281.754 69.814C283.653 72.9453 284.603 76.898 284.603 81.672C284.603 86.3947 283.653 90.3473 281.754 93.53C279.854 96.6613 277.185 99.0227 273.746 100.614C270.306 102.154 266.277 102.924 261.657 102.924ZM261.657 92.529C263.453 92.529 264.916 92.1953 266.046 91.528C267.175 90.8093 267.996 89.8083 268.51 88.525C269.023 87.2417 269.28 85.7017 269.28 83.905V79.516C269.28 77.7193 269.023 76.1793 268.51 74.896C267.996 73.5613 267.175 72.5603 266.046 71.893C264.916 71.1743 263.453 70.815 261.657 70.815C259.86 70.815 258.397 71.1743 257.268 71.893C256.19 72.5603 255.394 73.5613 254.881 74.896C254.367 76.1793 254.111 77.7193 254.111 79.516V83.905C254.111 85.7017 254.367 87.2417 254.881 88.525C255.394 89.8083 256.19 90.8093 257.268 91.528C258.397 92.1953 259.86 92.529 261.657 92.529Z" fill="url(#paint1_linear_0_1)"/>
<path d="M4.698 102H0.698V106H4.698V102ZM4.698 49.024V45.024H0.698V49.024H4.698ZM21.715 49.024H25.715V45.024H21.715V49.024ZM21.715 102V106H25.715V102H21.715ZM8.698 102V49.024H0.698V102H8.698ZM4.698 53.024H21.715V45.024H4.698V53.024ZM17.715 49.024V102H25.715V49.024H17.715ZM21.715 98H4.698V106H21.715V98ZM32.0438 102H28.0438V106H32.0438V102ZM32.0438 61.344V57.344H28.0438V61.344H32.0438ZM44.5948 61.344L48.543 60.7024L47.9973 57.344H44.5948V61.344ZM45.5958 67.504L41.6476 68.1456L42.1934 71.504H45.5958V67.504ZM46.1348 67.504V71.504H48.2565L49.4465 69.7474L46.1348 67.504ZM49.9078 63.577L52.2328 66.8319L52.2706 66.8049L52.3078 66.777L49.9078 63.577ZM54.6818 61.19L53.5532 57.3525H53.5532L54.6818 61.19ZM68.0028 62.268L65.9448 65.698L65.9949 65.728L66.0458 65.7566L68.0028 62.268ZM72.6998 67.427L69.0584 69.0822V69.0822L72.6998 67.427ZM74.2398 102V106H78.2398V102H74.2398ZM58.9168 102H54.9168V106H58.9168V102ZM58.5318 75.204L54.6857 76.3029L54.7346 76.4739L54.7984 76.6399L58.5318 75.204ZM57.6078 73.356L60.7313 70.8572L57.6078 73.356ZM55.9908 72.201L54.202 75.7787L54.3747 75.8651L54.5549 75.9344L55.9908 72.201ZM50.3698 72.663L52.4556 76.0761L52.4808 76.0607L52.5058 76.045L50.3698 72.663ZM48.1368 74.973L44.6751 72.9689L44.6574 72.9995L44.6402 73.0304L48.1368 74.973ZM47.3668 102V106H51.3668V102H47.3668ZM36.0438 102V61.344H28.0438V102H36.0438ZM32.0438 65.344H44.5948V57.344H32.0438V65.344ZM40.6466 61.9856L41.6476 68.1456L49.544 66.8624L48.543 60.7024L40.6466 61.9856ZM45.5958 71.504H46.1348V63.504H45.5958V71.504ZM49.4465 69.7474C50.2817 68.5144 51.2145 67.5593 52.2328 66.8319L47.5829 60.3221C45.7265 61.648 44.1439 63.3109 42.8232 65.2606L49.4465 69.7474ZM52.3078 66.777C53.358 65.9894 54.5177 65.4077 55.8105 65.0275L53.5532 57.3525C51.3553 57.999 49.3323 59.0086 47.5078 60.377L52.3078 66.777ZM55.8105 65.0275C57.1835 64.6236 58.5998 64.42 60.0718 64.42V56.42C57.8479 56.42 55.6708 56.7297 53.5532 57.3525L55.8105 65.0275ZM60.0718 64.42C62.8263 64.42 64.6944 64.9477 65.9448 65.698L70.0608 58.838C67.2046 57.1243 63.7854 56.42 60.0718 56.42V64.42ZM66.0458 65.7566C67.3862 66.5085 68.3732 67.5749 69.0584 69.0822L76.3413 65.7718C74.9731 62.7617 72.8288 60.3888 69.9598 58.7794L66.0458 65.7566ZM69.0584 69.0822C69.7886 70.6887 70.2398 72.8371 70.2398 75.666H78.2398C78.2398 72.0269 77.6644 68.6827 76.3413 65.7718L69.0584 69.0822ZM70.2398 75.666V102H78.2398V75.666H70.2398ZM74.2398 98H58.9168V106H74.2398V98ZM62.9168 102V77.514H54.9168V102H62.9168ZM62.9168 77.514C62.9168 76.2554 62.7322 74.9823 62.2652 73.7681L54.7984 76.6399C54.8448 76.7603 54.9168 77.0273 54.9168 77.514H62.9168ZM62.3779 74.1051C62.0468 72.946 61.5156 71.8376 60.7313 70.8572L54.4844 75.8548C54.5214 75.9011 54.6062 76.0247 54.6857 76.3029L62.3779 74.1051ZM60.7313 70.8572C59.8391 69.742 58.6963 68.9559 57.4267 68.4676L54.5549 75.9344C54.5981 75.951 54.5969 75.956 54.5706 75.9372C54.5583 75.9284 54.5432 75.9162 54.527 75.9009C54.5108 75.8856 54.4964 75.8698 54.4844 75.8548L60.7313 70.8572ZM57.7797 68.6233C56.48 67.9735 55.0901 67.739 53.7578 67.739V75.739C54.1708 75.739 54.2696 75.8125 54.202 75.7787L57.7797 68.6233ZM53.7578 67.739C51.8062 67.739 49.9188 68.2168 48.2339 69.281L52.5058 76.045C52.7715 75.8772 53.1428 75.739 53.7578 75.739V67.739ZM48.284 69.2499C46.7676 70.1766 45.5597 71.4409 44.6751 72.9689L51.5985 76.9771C51.8433 76.5544 52.1241 76.2787 52.4556 76.0761L48.284 69.2499ZM44.6402 73.0304C43.7595 74.6157 43.3668 76.3506 43.3668 78.13H51.3668C51.3668 77.5481 51.4875 77.1783 51.6335 76.9156L44.6402 73.0304ZM43.3668 78.13V102H51.3668V78.13H43.3668ZM47.3668 98H32.0438V106H47.3668V98ZM94.1822 102L90.4416 103.417L91.42 106H94.1822V102ZM78.7822 61.344V57.344H72.9897L75.0416 62.7609L78.7822 61.344ZM95.2602 61.344L99.0934 60.2008L98.2414 57.344H95.2602V61.344ZM99.1872 74.511L95.3541 75.6542L95.3845 75.7562L95.4203 75.8563L99.1872 74.511ZM100.111 77.745L96.2307 78.7151L96.2468 78.7798L96.2651 78.8439L100.111 77.745ZM101.42 82.288L97.5788 83.4032L97.5953 83.4599L97.6134 83.516L101.42 82.288ZM102.729 86.677L98.8668 87.7169L99.6637 90.677H102.729V86.677ZM103.268 86.677V90.677H106.268L107.108 87.797L103.268 86.677ZM104.5 82.519L108.332 83.6684L108.337 83.6513L108.342 83.6342L104.5 82.519ZM105.809 77.976L101.963 76.8771V76.8771L105.809 77.976ZM106.81 74.511L102.977 73.3678L102.975 73.3751L102.973 73.3823L106.81 74.511ZM110.737 61.344V57.344H107.756L106.904 60.2008L110.737 61.344ZM125.829 61.344L129.565 62.7733L131.642 57.344H125.829V61.344ZM110.275 102V106H113.028L114.011 103.429L110.275 102ZM97.9229 100.583L82.5229 59.9271L75.0416 62.7609L90.4416 103.417L97.9229 100.583ZM78.7822 65.344H95.2602V57.344H78.7822V65.344ZM91.4271 62.4872L95.3541 75.6542L103.02 73.3678L99.0934 60.2008L91.4271 62.4872ZM95.4203 75.8563C95.6093 76.3856 95.8794 77.3103 96.2307 78.7151L103.992 76.7749C103.624 75.305 103.279 74.0738 102.954 73.1657L95.4203 75.8563ZM96.2651 78.8439C96.6775 80.2872 97.1154 81.807 97.5788 83.4032L105.262 81.1728C104.801 79.5863 104.366 78.0774 103.957 76.6461L96.2651 78.8439ZM97.6134 83.516C98.1106 85.0575 98.5275 86.4568 98.8668 87.7169L106.592 85.6371C106.212 84.2279 105.756 82.7012 105.227 81.06L97.6134 83.516ZM102.729 90.677H103.268V82.677H102.729V90.677ZM107.108 87.797C107.464 86.5769 107.872 85.2009 108.332 83.6684L100.669 81.3696C100.205 82.9171 99.791 84.3131 99.4282 85.557L107.108 87.797ZM108.342 83.6342C108.805 82.038 109.243 80.5182 109.655 79.0749L101.963 76.8771C101.554 78.3084 101.119 79.8173 100.659 81.4038L108.342 83.6342ZM109.655 79.0749C110.065 77.6421 110.395 76.4982 110.648 75.6397L102.973 73.3823C102.712 74.2692 102.375 75.4353 101.963 76.8771L109.655 79.0749ZM110.643 75.6542L114.57 62.4872L106.904 60.2008L102.977 73.3678L110.643 75.6542ZM110.737 65.344H125.829V57.344H110.737V65.344ZM122.093 59.9147L106.539 100.571L114.011 103.429L129.565 62.7733L122.093 59.9147ZM110.275 98H94.1822V106H110.275V98ZM130.474 56.57H126.474V60.57H130.474V56.57ZM130.474 46.175V42.175H126.474V46.175H130.474ZM145.797 46.175H149.797V42.175H145.797V46.175ZM145.797 56.57V60.57H149.797V56.57H145.797ZM130.474 102H126.474V106H130.474V102ZM130.474 61.344V57.344H126.474V61.344H130.474ZM145.797 61.344H149.797V57.344H145.797V61.344ZM145.797 102V106H149.797V102H145.797ZM134.474 56.57V46.175H126.474V56.57H134.474ZM130.474 50.175H145.797V42.175H130.474V50.175ZM141.797 46.175V56.57H149.797V46.175H141.797ZM145.797 52.57H130.474V60.57H145.797V52.57ZM134.474 102V61.344H126.474V102H134.474ZM130.474 65.344H145.797V57.344H130.474V65.344ZM141.797 61.344V102H149.797V61.344H141.797ZM145.797 98H130.474V106H145.797V98ZM163.995 100.614L162.295 104.235L162.328 104.25L162.361 104.265L163.995 100.614ZM156.064 93.53L152.63 95.5798L152.637 95.5922L152.644 95.6044L156.064 93.53ZM156.064 69.814L159.484 71.8885L159.492 71.8762L159.499 71.8638L156.064 69.814ZM163.995 62.73L165.651 66.3715L165.663 66.3659L165.675 66.3602L163.995 62.73ZM184.785 61.344L183.832 65.2288L184.785 61.344ZM196.72 69.814L193.159 71.6359L193.176 71.6684L193.193 71.7006L196.72 69.814ZM198.491 77.745V81.745H202.491V77.745H198.491ZM183.63 77.745H179.63V81.745H183.63V77.745ZM182.706 73.818L179.201 75.7457L179.238 75.8115L179.276 75.876L182.706 73.818ZM180.165 71.585L178.51 75.2265L178.58 75.2582L178.651 75.2872L180.165 71.585ZM171.695 71.893L173.801 75.2941L173.822 75.281L173.843 75.2676L171.695 71.893ZM169.308 74.896L173.022 76.3816L173.032 76.3568L173.042 76.3319L169.308 74.896ZM169.308 88.525L165.594 90.0106L165.62 90.0737L165.647 90.136L169.308 88.525ZM171.849 91.528L169.702 94.9026L169.79 94.9588L169.881 95.0103L171.849 91.528ZM180.627 91.836L182.142 95.5382L182.182 95.5217L182.222 95.5043L180.627 91.836ZM183.322 89.526L186.752 91.584L186.774 91.5475L186.795 91.5106L183.322 89.526ZM184.246 85.445V81.445H180.246V85.445H184.246ZM198.491 85.445H202.491V81.445H198.491V85.445ZM196.72 93.453L193.175 91.6L193.167 91.6155L193.159 91.6311L196.72 93.453ZM191.946 98.843L194.184 102.158L191.946 98.843ZM184.785 101.923L185.738 105.808L184.785 101.923ZM176.084 98.924C171.903 98.924 168.453 98.2271 165.63 96.9633L162.361 104.265C166.417 106.081 171.025 106.924 176.084 106.924V98.924ZM165.696 96.9935C163.004 95.7291 160.966 93.8979 159.484 91.4556L152.644 95.6044C154.962 99.4248 158.211 102.316 162.295 104.235L165.696 96.9935ZM159.499 91.4802C158.058 89.0656 157.215 85.8678 157.215 81.672H149.215C149.215 86.9215 150.272 91.6291 152.63 95.5798L159.499 91.4802ZM157.215 81.672C157.215 77.4122 158.063 74.2315 159.484 71.8885L152.644 67.7395C150.267 71.6592 149.215 76.3838 149.215 81.672H157.215ZM159.499 71.8638C160.979 69.3836 163.001 67.5759 165.651 66.3715L162.34 59.0885C158.214 60.9641 154.948 63.8791 152.63 67.7642L159.499 71.8638ZM165.675 66.3602C168.486 65.0599 171.92 64.343 176.084 64.343V56.343C171.009 56.343 166.384 57.2175 162.316 59.0997L165.675 66.3602ZM176.084 64.343C178.875 64.343 181.453 64.6452 183.832 65.2288L185.738 57.4592C182.677 56.7082 179.454 56.343 176.084 56.343V64.343ZM183.832 65.2288C186.154 65.7983 188.094 66.6497 189.708 67.7394L194.184 61.1086C191.692 59.4262 188.858 58.2244 185.738 57.4592L183.832 65.2288ZM189.708 67.7394C191.201 68.747 192.338 70.0296 193.159 71.6359L200.281 67.9921C198.844 65.1837 196.798 62.873 194.184 61.1086L189.708 67.7394ZM193.193 71.7006C194 73.2085 194.491 75.1735 194.491 77.745H202.491C202.491 74.1565 201.802 70.8341 200.247 67.9274L193.193 71.7006ZM198.491 73.745H183.63V81.745H198.491V73.745ZM187.63 77.745C187.63 75.6604 187.229 73.5808 186.136 71.76L179.276 75.876C179.416 76.1085 179.63 76.6469 179.63 77.745H187.63ZM186.211 71.8903C185.186 70.0268 183.618 68.6758 181.68 67.8828L178.651 75.2872C178.971 75.4182 179.097 75.5559 179.201 75.7457L186.211 71.8903ZM181.821 67.9435C180.046 67.1371 178.091 66.815 176.084 66.815V74.815C177.26 74.815 178.026 75.0062 178.51 75.2265L181.821 67.9435ZM176.084 66.815C173.78 66.815 171.504 67.2738 169.548 68.5184L173.843 75.2676C174.146 75.0749 174.795 74.815 176.084 74.815V66.815ZM169.59 68.4919C167.675 69.6771 166.36 71.4196 165.575 73.4601L173.042 76.3319C173.284 75.7031 173.559 75.4436 173.801 75.2941L169.59 68.4919ZM165.594 73.4104C164.845 75.2846 164.538 77.3557 164.538 79.516H172.538C172.538 78.083 172.745 77.0741 173.022 76.3816L165.594 73.4104ZM164.538 79.516V83.905H172.538V79.516H164.538ZM164.538 83.905C164.538 86.0653 164.845 88.1364 165.594 90.0106L173.022 87.0394C172.745 86.3469 172.538 85.338 172.538 83.905H164.538ZM165.647 90.136C166.515 92.1078 167.872 93.7381 169.702 94.9026L173.997 88.1534C173.568 87.8806 173.231 87.5089 172.97 86.914L165.647 90.136ZM169.881 95.0103C171.841 96.118 174.094 96.529 176.392 96.529V88.529C174.995 88.529 174.219 88.2726 173.818 88.0457L169.881 95.0103ZM176.392 96.529C178.418 96.529 180.384 96.2573 182.142 95.5382L179.113 88.1338C178.612 88.3387 177.755 88.529 176.392 88.529V96.529ZM182.222 95.5043C184.107 94.685 185.675 93.3804 186.752 91.584L179.892 87.468C179.738 87.725 179.509 87.9604 179.032 88.1677L182.222 95.5043ZM186.795 91.5106C187.851 89.6636 188.246 87.566 188.246 85.445H180.246C180.246 86.6094 180.026 87.2324 179.849 87.5414L186.795 91.5106ZM184.246 89.445H198.491V81.445H184.246V89.445ZM194.491 85.445C194.491 88.013 194.001 90.0207 193.175 91.6L200.265 95.306C201.801 92.3679 202.491 89.037 202.491 85.445H194.491ZM193.159 91.6311C192.338 93.2374 191.201 94.52 189.708 95.5276L194.184 102.158C196.798 100.394 198.844 98.0833 200.281 95.2749L193.159 91.6311ZM189.708 95.5276C188.094 96.6173 186.154 97.4687 183.832 98.0382L185.738 105.808C188.858 105.043 191.692 103.841 194.184 102.158L189.708 95.5276ZM183.832 98.0382C181.453 98.6218 178.875 98.924 176.084 98.924V106.924C179.454 106.924 182.677 106.559 185.738 105.808L183.832 98.0382ZM216.278 102L215.069 105.813L215.124 105.83L215.179 105.846L216.278 102ZM211.35 98.612L214.562 96.2286L211.35 98.612ZM209.579 71.739H213.579V67.739H209.579V71.739ZM203.881 71.739H199.881V75.739H203.881V71.739ZM203.881 61.344V57.344H199.881V61.344H203.881ZM210.195 61.344V65.344H213.262L214.058 62.3822L210.195 61.344ZM213.506 49.024V45.024H210.439L209.643 47.9858L213.506 49.024ZM224.902 49.024H228.902V45.024H224.902V49.024ZM224.902 61.344H220.902V65.344H224.902V61.344ZM233.526 61.344H237.526V57.344H233.526V61.344ZM233.526 71.739V75.739H237.526V71.739H233.526ZM224.902 71.739V67.739H220.902V71.739H224.902ZM225.749 91.22L222.336 93.3058L222.362 93.3498L222.39 93.393L225.749 91.22ZM233.526 92.529H237.526V88.529H233.526V92.529ZM233.526 101.538L234.719 105.356L237.526 104.479V101.538H233.526ZM230.446 102.231L229.788 98.2854L229.692 98.3015L229.596 98.3223L230.446 102.231ZM226.827 102.77L226.495 98.7838L226.487 98.7844L226.48 98.785L226.827 102.77ZM223.67 98.924C221.186 98.924 219.103 98.6471 217.377 98.1539L215.179 105.846C217.765 106.585 220.61 106.924 223.67 106.924V98.924ZM217.487 98.1871C216.088 97.7435 215.185 97.0682 214.562 96.2286L208.137 100.995C209.876 103.338 212.259 104.922 215.069 105.813L217.487 98.1871ZM214.562 96.2286C214.061 95.5536 213.579 94.3144 213.579 92.067H205.579C205.579 95.3636 206.277 98.4877 208.137 100.995L214.562 96.2286ZM213.579 92.067V71.739H205.579V92.067H213.579ZM209.579 67.739H203.881V75.739H209.579V67.739ZM207.881 71.739V61.344H199.881V71.739H207.881ZM203.881 65.344H210.195V57.344H203.881V65.344ZM214.058 62.3822L217.369 50.0622L209.643 47.9858L206.332 60.3058L214.058 62.3822ZM213.506 53.024H224.902V45.024H213.506V53.024ZM220.902 49.024V61.344H228.902V49.024H220.902ZM224.902 65.344H233.526V57.344H224.902V65.344ZM229.526 61.344V71.739H237.526V61.344H229.526ZM233.526 67.739H224.902V75.739H233.526V67.739ZM220.902 71.739V87.216H228.902V71.739H220.902ZM220.902 87.216C220.902 89.2904 221.219 91.4792 222.336 93.3058L229.162 89.1342C229.169 89.1459 229.097 89.0313 229.027 88.6982C228.957 88.3662 228.902 87.8834 228.902 87.216H220.902ZM222.39 93.393C224.086 96.0134 227.046 96.529 229.214 96.529V88.529C228.94 88.529 228.743 88.5117 228.611 88.4917C228.477 88.4716 228.433 88.4525 228.452 88.4599C228.474 88.4683 228.573 88.5088 228.706 88.6099C228.844 88.715 228.987 88.8618 229.107 89.047L222.39 93.393ZM229.214 96.529H233.526V88.529H229.214V96.529ZM229.526 92.529V101.538H237.526V92.529H229.526ZM232.333 97.7201C231.746 97.9036 230.912 98.0981 229.788 98.2854L231.103 106.177C232.443 105.953 233.663 105.686 234.719 105.356L232.333 97.7201ZM229.596 98.3223C228.59 98.541 227.557 98.6953 226.495 98.7838L227.159 106.756C228.561 106.639 229.94 106.434 231.295 106.14L229.596 98.3223ZM226.48 98.785C225.384 98.8803 224.451 98.924 223.67 98.924V106.924C224.736 106.924 225.908 106.865 227.173 106.755L226.48 98.785ZM249.568 100.614L247.867 104.235L247.9 104.25L247.933 104.265L249.568 100.614ZM241.637 93.53L238.202 95.5798L238.209 95.5922L238.217 95.6044L241.637 93.53ZM241.637 69.814L245.057 71.8885L245.057 71.8884L241.637 69.814ZM249.568 62.807L251.223 66.4485L251.235 66.4429L251.247 66.4372L249.568 62.807ZM273.746 62.807L272.066 66.4372L272.088 66.4476L272.111 66.4577L273.746 62.807ZM281.754 69.814L278.334 71.8884L281.754 69.814ZM281.754 93.53L285.174 95.6044L285.181 95.5922L285.188 95.5798L281.754 93.53ZM273.746 100.614L275.38 104.265L275.403 104.255L275.425 104.244L273.746 100.614ZM266.046 91.528L268.081 94.9717L268.137 94.9381L268.193 94.9026L266.046 91.528ZM268.51 88.525L264.796 87.0394L268.51 88.525ZM268.51 74.896L264.776 76.3319L264.786 76.3568L264.796 76.3816L268.51 74.896ZM266.046 71.893L263.898 75.2676L263.954 75.3031L264.011 75.3367L266.046 71.893ZM257.268 71.893L259.373 75.2941L259.394 75.281L259.415 75.2676L257.268 71.893ZM254.881 74.896L258.595 76.3816L258.604 76.3568L258.614 76.3319L254.881 74.896ZM254.881 88.525L251.167 90.0106L254.881 88.525ZM257.268 91.528L255.049 94.8562L255.139 94.9165L255.233 94.9717L257.268 91.528ZM261.657 98.924C257.476 98.924 254.025 98.2271 251.202 96.9633L247.933 104.265C251.989 106.081 256.598 106.924 261.657 106.924V98.924ZM251.268 96.9935C248.576 95.7291 246.538 93.8979 245.057 91.4556L238.217 95.6044C240.534 99.4248 243.783 102.316 247.867 104.235L251.268 96.9935ZM245.071 91.4802C243.631 89.0656 242.788 85.8678 242.788 81.672H234.788C234.788 86.9215 235.844 91.6291 238.202 95.5798L245.071 91.4802ZM242.788 81.672C242.788 77.4122 243.635 74.2315 245.057 71.8885L238.217 67.7395C235.839 71.6592 234.788 76.3838 234.788 81.672H242.788ZM245.057 71.8884C246.532 69.4568 248.555 67.6613 251.223 66.4485L247.912 59.1655C243.805 61.0327 240.54 63.9085 238.217 67.7396L245.057 71.8884ZM251.247 66.4372C254.058 65.1369 257.492 64.42 261.657 64.42V56.42C256.581 56.42 251.956 57.2945 247.888 59.1768L251.247 66.4372ZM261.657 64.42C265.821 64.42 269.255 65.1369 272.066 66.4372L275.425 59.1768C271.357 57.2945 266.732 56.42 261.657 56.42V64.42ZM272.111 66.4577C274.832 67.676 276.868 69.4727 278.334 71.8884L285.174 67.7396C282.84 63.8926 279.538 61.018 275.38 59.1563L272.111 66.4577ZM278.334 71.8884C279.755 74.2315 280.603 77.4122 280.603 81.672H288.603C288.603 76.3838 287.551 71.6592 285.174 67.7395L278.334 71.8884ZM280.603 81.672C280.603 85.8678 279.76 89.0656 278.319 91.4802L285.188 95.5798C287.546 91.6291 288.603 86.9215 288.603 81.672H280.603ZM278.334 91.4556C276.862 93.8821 274.81 95.7141 272.066 96.9837L275.425 104.244C279.56 102.331 282.847 99.4405 285.174 95.6044L278.334 91.4556ZM272.111 96.9633C269.288 98.2271 265.837 98.924 261.657 98.924V106.924C266.716 106.924 271.324 106.081 275.38 104.265L272.111 96.9633ZM261.657 96.529C263.915 96.529 266.148 96.1137 268.081 94.9717L264.011 88.0843C263.685 88.2769 262.991 88.529 261.657 88.529V96.529ZM268.193 94.9026C270.054 93.7186 271.41 92.0451 272.224 90.0106L264.796 87.0394C264.583 87.5716 264.296 87.9001 263.898 88.1534L268.193 94.9026ZM272.224 90.0106C272.973 88.1364 273.28 86.0653 273.28 83.905H265.28C265.28 85.338 265.073 86.3469 264.796 87.0394L272.224 90.0106ZM273.28 83.905V79.516H265.28V83.905H273.28ZM273.28 79.516C273.28 77.3557 272.973 75.2846 272.224 73.4104L264.796 76.3816C265.073 77.0741 265.28 78.083 265.28 79.516H273.28ZM272.243 73.4601C271.437 71.3647 270.058 69.6175 268.081 68.4493L264.011 75.3367C264.292 75.5032 264.556 75.758 264.776 76.3319L272.243 73.4601ZM268.193 68.5184C266.237 67.2738 263.961 66.815 261.657 66.815V74.815C262.946 74.815 263.595 75.0749 263.898 75.2676L268.193 68.5184ZM261.657 66.815C259.353 66.815 257.076 67.2738 255.12 68.5184L259.415 75.2676C259.718 75.0749 260.367 74.815 261.657 74.815V66.815ZM255.162 68.4919C253.248 69.6771 251.932 71.4196 251.147 73.4601L258.614 76.3319C258.856 75.7031 259.132 75.4436 259.373 75.2941L255.162 68.4919ZM251.167 73.4104C250.417 75.2846 250.111 77.3557 250.111 79.516H258.111C258.111 78.083 258.318 77.0741 258.595 76.3816L251.167 73.4104ZM250.111 79.516V83.905H258.111V79.516H250.111ZM250.111 83.905C250.111 86.0653 250.417 88.1364 251.167 90.0106L258.595 87.0394C258.318 86.3469 258.111 85.338 258.111 83.905H250.111ZM251.167 90.0106C251.959 91.9923 253.252 93.6581 255.049 94.8562L259.486 88.1998C259.128 87.9606 258.829 87.6244 258.595 87.0394L251.167 90.0106ZM255.233 94.9717C257.165 96.1137 259.398 96.529 261.657 96.529V88.529C260.322 88.529 259.629 88.2769 259.303 88.0843L255.233 94.9717Z" fill="white"/>
</g>
<g clip-path="url(#clip0_0_1)">
<path d="M250.1 67.1001C253.9 63.1001 253.8 56.8001 249.9 53.0001C246 49.3001 239.9 49.3001 236 53.0001C232 56.8001 227 76.0001 227 76.0001C227 76.0001 246.2 71.0001 250.1 67.1001Z" fill="url(#paint2_linear_0_1)"/>
<path d="M264 57L262.4 58.6C261.6 59.4 260.4 59.4 259.6 58.6L244.4 43.4C243.6 42.6 243.6 41.4 244.4 40.6L246 39L264 57Z" fill="url(#paint3_linear_0_1)"/>
<path d="M291 12C291 23.5 286.4 34.6 278.3 42.7L264 57L246 39L260.2 24.7C268.4 16.6 279.5 12 291 12Z" fill="url(#paint4_linear_0_1)"/>
<path d="M250 59.9999C251.7 57.7999 251.2 54.6999 249 52.9999C247.2 51.6999 244.8 51.6999 243 52.9999C241 54.9999 238 64.9999 238 64.9999C238 64.9999 248.1 61.9999 250 59.9999Z" fill="url(#paint5_linear_0_1)"/>
<path d="M259 26H257.4C248.8 26 240.6 29.4 234.5 35.5C233.8 36.2 233.8 37.3 234.5 37.9C234.9 38.3 235.6 38.5 236.2 38.3C239.4 37.4 242.9 37.6 246 38.9L259 26Z" fill="#770202"/>
<path d="M277 44V45.6C277 54.2 273.6 62.4 267.5 68.5C266.8 69.2 265.7 69.2 265.1 68.5C264.7 68.1 264.5 67.4 264.7 66.8C265.6 63.6 265.4 60.1 264.1 57L277 44Z" fill="#770202"/>
<path d="M291 12C291 16 290.4 20 289.3 23.9C284 23.1 279.9 19 279.1 13.7C283 12.6 287 12 291 12Z" fill="#770202"/>
<path d="M274 35C277.314 35 280 32.3137 280 29C280 25.6863 277.314 23 274 23C270.686 23 268 25.6863 268 29C268 32.3137 270.686 35 274 35Z" fill="url(#paint6_linear_0_1)"/>
<path d="M274 36C270.1 36 267 32.9 267 29C267 25.1 270.1 22 274 22C277.9 22 281 25.1 281 29C281 32.9 277.9 36 274 36ZM274 24C271.2 24 269 26.2 269 29C269 31.8 271.2 34 274 34C276.8 34 279 31.8 279 29C279 26.2 276.8 24 274 24Z" fill="url(#paint7_linear_0_1)"/>
<path d="M250 55C249.5 55 249 54.8 248.6 54.4C247.8 53.6 247.8 52.4 248.6 51.6L262.6 37.6C263.4 36.8 264.6 36.8 265.4 37.6C266.2 38.4 266.2 39.6 265.4 40.4L251.4 54.4C251 54.8 250.5 55 250 55Z" fill="#770202"/>
</g>
<defs>
<filter id="filter0_d_0_1" x="34.698" y="0.175049" width="212.033" height="64.749" filterUnits="userSpaceOnUse" color-interpolation-filters="sRGB">
<feFlood flood-opacity="0" result="BackgroundImageFix"/>
<feColorMatrix in="SourceAlpha" type="matrix" values="0 0 0 0 0 0 0 0 0 0 0 0 0 0 0 0 0 0 127 0" result="hardAlpha"/>
<feOffset dy="4"/>
<feGaussianBlur stdDeviation="2"/>
<feComposite in2="hardAlpha" operator="out"/>
<feColorMatrix type="matrix" values="0 0 0 0 0 0 0 0 0 0 0 0 0 0 0 0 0 0 0.4 0"/>
<feBlend mode="normal" in2="BackgroundImageFix" result="effect1_dropShadow_0_1"/>
<feBlend mode="normal" in="SourceGraphic" in2="effect1_dropShadow_0_1" result="shape"/>
</filter>
<filter id="filter1_d_0_1" x="0.698" y="46.175" width="287.905" height="64.749" filterUnits="userSpaceOnUse" color-interpolation-filters="sRGB">
<feFlood flood-opacity="0" result="BackgroundImageFix"/>
<feColorMatrix in="SourceAlpha" type="matrix" values="0 0 0 0 0 0 0 0 0 0 0 0 0 0 0 0 0 0 127 0" result="hardAlpha"/>
<feOffset dy="4"/>
<feGaussianBlur stdDeviation="2"/>
<feComposite in2="hardAlpha" operator="out"/>
<feColorMatrix type="matrix" values="0 0 0 0 0 0 0 0 0 0 0 0 0 0 0 0 0 0 0.4 0"/>
<feBlend mode="normal" in2="BackgroundImageFix" result="effect1_dropShadow_0_1"/>
<feBlend mode="normal" in="SourceGraphic" in2="effect1_dropShadow_0_1" result="shape"/>
</filter>
<linearGradient id="paint0_linear_0_1" x1="139.5" y1="-16" x2="140.178" y2="55.9971" gradientUnits="userSpaceOnUse">
<stop stop-color="#B00203"/>
<stop offset="1" stop-color="#590303"/>
</linearGradient>
<linearGradient id="paint1_linear_0_1" x1="143.5" y1="30" x2="144" y2="102" gradientUnits="userSpaceOnUse">
<stop stop-color="#B00203"/>
<stop offset="1" stop-color="#590303"/>
</linearGradient>
<linearGradient id="paint2_linear_0_1" x1="227" y1="63.0611" x2="253" y2="63.0611" gradientUnits="userSpaceOnUse">
<stop stop-color="#E9A254"/>
<stop offset="1" stop-color="#F4BB79"/>
</linearGradient>
<linearGradient id="paint3_linear_0_1" x1="243.828" y1="49.111" x2="264.05" y2="49.111" gradientUnits="userSpaceOnUse">
<stop stop-color="#474F72"/>
<stop offset="1" stop-color="#878C9F"/>
</linearGradient>
<linearGradient id="paint4_linear_0_1" x1="268.525" y1="56.95" x2="268.525" y2="12" gradientUnits="userSpaceOnUse">
<stop stop-color="#D4D8E1"/>
<stop offset="1" stop-color="#F3F4F5"/>
</linearGradient>
<linearGradient id="paint5_linear_0_1" x1="238" y1="58.4999" x2="251.5" y2="58.4999" gradientUnits="userSpaceOnUse">
<stop stop-color="#FBCC88"/>
<stop offset="1" stop-color="#FFE5C3"/>
</linearGradient>
<linearGradient id="paint6_linear_0_1" x1="268" y1="29" x2="280" y2="29" gradientUnits="userSpaceOnUse">
<stop stop-color="#9DD5DF"/>
<stop offset="1" stop-color="#C3E1F5"/>
</linearGradient>
<linearGradient id="paint7_linear_0_1" x1="274" y1="36" x2="274" y2="22" gradientUnits="userSpaceOnUse">
<stop stop-color="#949AAF"/>
<stop offset="1" stop-color="#C6CCDA"/>
</linearGradient>
<clipPath id="clip0_0_1">
<rect width="64" height="64" fill="white" transform="translate(227 12)"/>
</clipPath>
</defs>
</svg>
