<svg width="22" height="20" viewBox="0 0 22 20" fill="none" xmlns="http://www.w3.org/2000/svg">
<path d="M10.0892 0.931282C10.3883 0.00947952 11.6924 0.00948143 11.9915 0.931283L13.7309 6.29143C13.8646 6.70364 14.2487 6.98278 14.682 6.98278H20.3134C21.2818 6.98278 21.6848 8.22172 20.9017 8.79143L16.3436 12.1075C15.9935 12.3621 15.8471 12.8131 15.9807 13.2248L17.7212 18.5886C18.0202 19.5101 16.9652 20.2759 16.1817 19.7059L11.6287 16.3935C11.278 16.1384 10.8028 16.1384 10.4521 16.3935L5.899 19.7059C5.11555 20.2759 4.0605 19.5101 4.35953 18.5886L6.10005 13.2248C6.23365 12.8131 6.08719 12.3621 5.73717 12.1075L1.17903 8.79142C0.39593 8.22172 0.798919 6.98278 1.76732 6.98278H7.39869C7.83206 6.98278 8.2161 6.70364 8.34986 6.29143L10.0892 0.931282Z" fill="#B1CA16"/>
</svg>
