<svg width="20" height="16" viewBox="0 0 20 16" fill="none" xmlns="http://www.w3.org/2000/svg">
<path d="M19.6017 3.15459C19.4886 2.7291 19.2657 2.34077 18.9554 2.02847C18.6451 1.71617 18.2582 1.49084 17.8335 1.37504C16.2698 0.95459 10.0198 0.95459 10.0198 0.95459C10.0198 0.95459 3.76984 0.95459 2.2062 1.37504C1.78144 1.49084 1.39455 1.71617 1.08424 2.02847C0.773933 2.34077 0.551091 2.7291 0.438018 3.15459C0.0198365 4.72504 0.0198364 8 0.0198364 8C0.0198364 8 0.0198365 11.275 0.438018 12.8455C0.551091 13.271 0.773933 13.6593 1.08424 13.9716C1.39455 14.2839 1.78144 14.5092 2.2062 14.625C3.76984 15.0455 10.0198 15.0455 10.0198 15.0455C10.0198 15.0455 16.2698 15.0455 17.8335 14.625C18.2582 14.5092 18.6451 14.2839 18.9554 13.9716C19.2657 13.6593 19.4886 13.271 19.6017 12.8455C20.0198 11.275 20.0198 8 20.0198 8C20.0198 8 20.0198 4.72504 19.6017 3.15459Z" fill="#FF0302"/>
<path d="M7.97437 10.9741V5.02637L13.2016 8.0002L7.97437 10.9741Z" fill="white"/>
</svg>
